<svg xmlns="http://www.w3.org/2000/svg" viewBox="0 0 1996.8 209.21"><defs><style>.cls-1{fill:#2add61;}.cls-2{fill:#07562d;}</style></defs><g id="Capa_2" data-name="Capa 2"><g id="Capa_1-2" data-name="Capa 1"><path class="cls-1" d="M1889.83,0c-61.34,0-107,44.05-107,103.82s45.62,103.82,107,103.82,107-44,107-103.82S1951.18,0,1889.83,0Zm0,163.6c-45.61,0-75.5-23.6-75.5-59.78s29.89-59.77,75.5-59.77,75.51,23.59,75.51,59.77S1935.45,163.6,1889.83,163.6Z"/><path class="cls-1" d="M1753,88.09v116.4h-26.74V163.6c-15.73,28.31-40.9,44-77.08,44-61.35,0-107-44-107-103.82S1587.81,0,1649.16,0c48.76,0,88.09,28.31,99.1,69.21h-36.18c-11-15.73-36.18-25.17-62.92-25.17-45.62,0-75.51,23.6-75.51,59.78s29.89,59.78,75.51,59.78c29.89,0,58.2-12.59,69.21-33h-67.64V88.09Z"/><polygon class="cls-1" points="1518.6 160.45 1518.6 204.49 1372.31 204.49 1372.31 3.15 1517.03 3.15 1517.03 47.19 1403.77 47.19 1403.77 81.8 1506.01 81.8 1506.01 124.27 1403.77 124.27 1403.77 160.45 1518.6 160.45"/><rect class="cls-1" x="1295.23" y="3.15" width="33.03" height="201.35"/><path class="cls-1" d="M1048.26,103.82C1048.26,44,1093.88,0,1155.23,0c51.91,0,94.38,34.61,103.82,81.8h-34.61C1215,59.78,1186.69,44,1155.23,44c-45.62,0-75.51,23.6-75.51,59.78s29.89,59.78,75.51,59.78c31.46,0,59.77-15.73,69.21-37.76h34.61c-9.44,48.77-51.91,81.8-103.82,81.8C1093.88,207.64,1048.26,163.6,1048.26,103.82Z"/><path class="cls-2" d="M863.59,0c-61.34,0-107,44.05-107,103.82s45.62,103.82,107,103.82,107-44,107-103.82S924.94,0,863.59,0Zm0,163.6c-45.61,0-75.5-23.6-75.5-59.78S818,44.05,863.59,44.05s75.51,23.59,75.51,59.77S909.21,163.6,863.59,163.6Z"/><polygon class="cls-2" points="751.91 47.19 685.84 47.19 685.84 204.49 654.38 204.49 654.38 47.19 588.31 47.19 588.31 3.15 751.91 3.15 751.91 47.19"/><polygon class="cls-2" points="386.97 3.15 427.87 3.15 520.67 132.13 530.11 132.13 530.11 3.15 561.57 3.15 561.57 204.49 520.67 204.49 429.44 77.08 418.43 77.08 418.43 204.49 386.97 204.49 386.97 3.15"/><path class="cls-2" d="M185.62,127.42V3.15h31.46V125.84c0,22,20.45,37.76,51.91,37.76s51.91-15.73,51.91-37.76V3.15h31.46V127.42c0,45.61-36.18,81.79-83.37,81.79S185.62,173,185.62,127.42Z"/><path class="cls-2" d="M92.81,3.15H0V204.49H31.46V141.57H92.81c40.9,0,70.79-29.88,70.79-69.21S133.71,3.15,92.81,3.15ZM96,97.53H31.46V47.19H96c22,0,36.18,9.44,36.18,25.17S118,97.53,96,97.53Z"/></g></g></svg>